<svg viewBox="0 0 512 512" xmlns="http://www.w3.org/2000/svg"><path d="m471.95 253.05c0 120.9-98.01 218.9-218.9 218.9-120.9 0-218.9-98.01-218.9-218.9 0-120.9 98.01-218.9 218.9-218.9 120.9 0 218.9 98.01 218.9 218.9" fill="#cd1c30" fill-rule="evenodd"/><path d="m256.73 41.29c-119.06 0-216.41 93.37-223.62 211.27 2.263 5.493 7.424 9.187 10.357 14.599l1.414 13.07 2.37-12.12 26.1 11.08 18.04 16.893 15.479 2.293c-5.528 12.662-16.713 33.06-14.676 47.2 1.185 8.221 9.466 19.947 14.217 26.638 6.637 9.346 19.17 14.873 22.511 26.638l.535 19.377 3.631 14.523c-.6 5.087-4.576 13.239-3.822 19.15 10.253 7.143 21.13 13.435 32.524 18.804 1.994-1.897 1.739-5.998-.077-8.905l8.828-12.345 11.198-8.37 7.873-27.632 16.969-11.122c6.946-10.534 1.911-19.296 4.51-30.12l11.427-32.677c-12.92-4.898-31.435-10.909-40.55-21.785l-2.37 1.223-2.408-10.892-14.294-7.262-2.37 2.408-3.593-16.931-19.07-1.567-14.332-7.911c-6.171-.891-14.341 9.342-16.663 14.294l-8.37-1.185 2.408-2.446-7.147-4.854 1.185 4.854c-5.142-5.397-6.03-12.205-4.777-19.377l-8.332-3.631-1.223 3.631c-1.491-5.99-.862-13.726 3.593-18.15-6.534-4.525-10.926-.267-15.479 4.854l-9.567-19.38c-2.627 5.941-1.669 11.867-1.185 18.15h-2.408c-.527-6.773-2.159-14.178 1.223-20.562 6.321-11.93 25.301-16.963 36.957-14.523l-1.223 2.408 10.739 9.708c.049-18.508 7.236-20.464 17.313-33.938l7.03-12.994c7.82-8.732 19.967-14.686 30.46-18.612l13.147-8.293c-4.256-7.479-15.442-5.339-22.625-4.854 12.917-7.462 30.479-3.419 39.33-16.931-9.652-7.131-9.652-25.736-25.03-18.15l2.37-7.262-13.11-6.077-9.555 20.256-13.11 16.05-1.185-8.446c-5.04-2.378-18.915-6.559-19.19-13.338-.294-7.368 22.13-18.498 27.556-22.969l-2.408 6.04 9.249-.879c1.959-1.256 20.545-27.871 22.931-11.236 12.927 4.975 14.404 10.677 27.441 2.446l-8.332-3.669c-1.315-11.954-11.728-12.07-21.479-12.08l30.995-14.523c3.451 8.594 14.269 10.353 17.772 18.268 2.488 5.624-4.888 9.01-4.701 14.408.231 6.653 6.6 14.787 9.593 20.562l17.925-19.874c9.897-5.357 25.827-5.944 33.709-14.599 9.125-10.02 4.104-25.966 21.1-26.03-3.448-1.473-9-2.591-11.924 0l-3.593-3.631h4.777c-2.493-3.471-4.163-5.364-8.332-6.077-.974-1.223-2.229-2.042-3.631-2.637-3.657-.178-7.344-.268-11.05-.268m104.07 35.581c-4.191 3.484-11.301 5.241-16.663 6.077l-9.746 13.606-11.351 9.593c-1.828 4.409 1.086 11.08 1.987 15.517l11.924-6.04c1.715 6.01 6.362 7.559 10.739 10.892 7.07-13.616.985-26.635 17.886-33.9l-10.739 13.338 3.593-2.446 1.185 7.262 1.185-9.669c3.149 10.919-.146 25.918-11.924 30.04l-11.924-.994v-7.262c-6.781 1.437-6.526 4.865-4.739 10.892-4.602-1.328-7.348-1.107-10.739 2.408-3.642-3.8-6.607-6.688-7.147-12.08-2.315-2.341-3.354-3.935-3.593-7.262l-8.332-1.223 3.554 19.377c-3.181-6.06-6.475-7.537-13.11-6.077l3.593 14.523 4.777-1.185-3.593-1.223 4.777-8.485 2.37 13.338 10.739-2.446c-3.01 2.916-5.409 3.624-9.555 3.631l1.223 3.631h-5.962l8.332 14.523c-19.535.164-19.761 10.318-19.07 26.638 3.813.279 5.668.852 8.332 3.631 15.776-8.439 19.413-24.12 38.14-29.05 3.039 9.595 12.439 9.02 9.555 20.6 9.202-1.907 11.778-9.789 5.962-16.969 7.84 4.741 10.08 14.476 15.478 21.785 3.801-5.067 2.342-10.858 8.37-14.523v3.631c10.1 9.1 17.07 11.152 29.81 15.746-4.379 6.311-9.662 12.48-17.886 11.962-10.07-.633-22.918-10.649-29.81 1.338l-19.19-15.44c-10.641-4.556-21.1-.248-32.07-1.491l-4.777 2.408 2.37 1.223c-21.843 9.977-33.959 36.25-36.23 58.09l-4.166 14.523c2.323 14.184 14.175 28.872 24.12 38.524 7 6.795 12.03-6.486 18.689.229 8.812-3.387 22.11-9.299 30.19.153 5.309 6.211-.237 11.356 1.605 18 3.187 11.498 10.796 24.971 10.778 37.531l-2.981 30.23c2.612 18.436 12.684 33.959 12.841 53.28 14.618-1.529 31.06-8.993 39.17-21.785l3.478-10.778 6.04-7.491-2.293-11.886c3.412-8.314 17.222-9.223 19.3-18.307 2.83-12.367-4.562-27.01-.153-39.9 6.8-19.868 25.735-34.418 26.26-56.907l-14.294 1.223c12.868-16.03 40.13-24.1 26.22-48.42l-5.962 7.262h-2.37c-4.604-9.807-11.915-10.83-11.924-23.01 11.161 9.752 22.707 10.06 33.365 21.785.973-.535 1.783-1.211 2.446-2.026-8.147-62.56-41.822-117.04-90.16-152.53-9.09-.905-19.831-2.204-25.53-7.605h-2.408v-.038" fill="#fff8eb" fill-opacity=".263"/><g fill-rule="evenodd"><path d="m201.06 116.97c-6.358 0-11.469 5.142-11.469 11.5v57.28c0 3.381 1.44 6.405 3.75 8.5.352.409.75.769 1.156 1.125.298.333.634.641.969.938.311.352.648.689 1 1 .296.335.604.671.938.969.356.406.716.804 1.125 1.156.251.277.505.53.781.781.343.398.731.746 1.125 1.094.321.362.667.712 1.031 1.031.298.333.634.641.969.938.296.335.604.671.938.969.356.406.716.804 1.125 1.156.283.312.59.596.906.875.279.316.563.623.875.906.352.409.75.769 1.156 1.125.298.333.634.641.969.938.311.352.648.689 1 1 .296.335.604.671.938.969.356.406.716.804 1.125 1.156.251.277.505.53.781.781.352.409.75.769 1.156 1.125.298.333.634.641.969.938.311.352.648.689 1 1 .296.335.604.671.938.969.356.406.716.804 1.125 1.156.251.277.505.53.781.781.343.398.731.746 1.125 1.094.321.362.667.712 1.031 1.031.298.333.634.641.969.938.296.335.604.671.938.969.356.406.716.804 1.125 1.156.283.312.59.596.906.875.279.316.563.623.875.906.352.409.75.769 1.156 1.125.298.333.634.641.969.938.277.313.566.625.875.906.064.074.122.147.188.219h-121.62v45.344h1.125v1h1.125v1h1.094l.031 1h1.063l.031.969 1.094-.031.031 1.031 1.094-.031.031 1.031 1.094-.031.031 1.031 1.063-.031.063 1.031 1.063-.031.063 1.031 1.031-.031.063 1 1.063-.031.063 1.031 1.031-.063.094 1.063 1.031-.063.094 1.063 1.031-.063.094 1.063 1.031-.063.094 1.063 1.031-.063.094 1.031.969-.063.063.563h-36.34c-6.358 0-11.5 5.111-11.5 11.469v30.19c0 3.381 1.463 6.405 3.781 8.5.339.392.705.751 1.094 1.094.279.313.595.594.906.875.337.389.708.754 1.094 1.094.312.352.647.689 1 1 .312.352.647.689 1 1 .28.316.562.623.875.906.324.375.692.701 1.063 1.031.339.387.706.756 1.094 1.094.298.331.603.643.938.938.312.352.647.689 1 1 .312.352.647.689 1 1 .312.352.647.689 1 1 .27.305.543.601.844.875.363.423.768.791 1.188 1.156.298.331.603.643.938.938.312.352.647.689 1 1 .312.352.647.689 1 1 .312.352.647.689 1 1 .28.316.562.623.875.906.339.392.705.751 1.094 1.094.31.349.649.66 1 .969.312.352.647.689 1 1 .312.352.647.689 1 1 .312.352.647.689 1 1 .28.316.562.623.875.906.339.392.705.751 1.094 1.094.307.345.653.663 1 .969.315.356.644.686 1 1 .312.352.647.689 1 1 .312.352.647.689 1 1 .312.352.647.689 1 1 .27.305.543.601.844.875.363.423.768.791 1.188 1.156.298.331.603.643.938.938.312.352.647.689 1 1 .312.352.647.689 1 1 .312.352.647.689 1 1 .27.305.543.601.844.875.363.423.768.791 1.188 1.156.298.331.603.643.938.938.312.352.647.689 1 1 .312.352.647.689 1 1 .312.352.647.689 1 1 .28.316.562.623.875.906.339.392.705.751 1.094 1.094.279.313.595.594.906.875.337.389.708.754 1.094 1.094.312.352.647.689 1 1 .312.352.647.689 1 1 .28.316.562.623.875.906.324.375.692.701 1.063 1.031.339.387.706.756 1.094 1.094.298.331.603.643.938.938.312.352.647.689 1 1 .312.352.647.689 1 1 .312.352.647.689 1 1 .27.305.543.601.844.875.363.423.768.791 1.188 1.156.298.331.603.643.938.938.312.352.647.689 1 1 .312.352.647.689 1 1 .312.352.647.689 1 1 .28.316.562.623.875.906.339.392.705.751 1.094 1.094.31.349.649.66 1 .969.312.352.647.689 1 1 .312.352.647.689 1 1 .312.352.647.689 1 1 .28.316.562.623.875.906.339.392.705.751 1.094 1.094.307.345.653.663 1 .969.315.356.644.686 1 1 .312.352.647.689 1 1 .312.352.647.689 1 1 .312.352.647.689 1 1 .27.305.543.601.844.875.363.423.768.791 1.188 1.156.298.331.603.643.938.938.312.352.647.689 1 1 .312.352.647.689 1 1 .312.352.647.689 1 1 .27.305.543.601.844.875.363.423.768.791 1.188 1.156.298.331.603.643.938.938.312.352.647.689 1 1 .312.352.647.689 1 1 .312.352.647.689 1 1 .28.316.562.623.875.906.339.392.705.751 1.094 1.094.279.313.595.594.906.875.337.389.708.754 1.094 1.094.312.352.647.689 1 1 .312.352.647.689 1 1 .28.316.562.623.875.906.324.375.692.701 1.063 1.031.339.387.706.756 1.094 1.094.298.331.603.643.938.938.312.352.647.689 1 1 .312.352.647.689 1 1 .312.352.647.689 1 1 .27.305.543.601.844.875.363.423.768.791 1.188 1.156.298.331.603.643.938.938.312.352.647.689 1 1 .312.352.647.689 1 1 .312.352.647.689 1 1 .28.316.562.623.875.906.339.392.705.751 1.094 1.094.31.349.649.66 1 .969.312.352.647.689 1 1 .312.352.647.689 1 1 .312.352.647.689 1 1 .28.316.562.623.875.906.339.392.705.751 1.094 1.094.279.313.595.594.906.875.337.389.708.754 1.094 1.094.312.352.647.689 1 1 .312.352.647.689 1 1 .28.316.562.623.875.906.324.375.692.701 1.063 1.031.339.387.706.756 1.094 1.094.298.331.603.643.938.938.312.352.647.689 1 1 .312.352.647.689 1 1 .312.352.647.689 1 1 .27.305.543.601.844.875.215.25.449.465.688.688 14.637 3.085 29.789 4.75 45.34 4.75 27.803 0 54.41-5.203 78.875-14.656v-1.156c.246.302.519.588.813.844 75.77-29.624 130.99-100.25 138.38-184.59-.103-.102-.203-.216-.313-.313-.343-.389-.702-.755-1.094-1.094-.283-.313-.59-.595-.906-.875-.311-.353-.648-.688-1-1-.311-.353-.648-.688-1-1-.311-.353-.648-.688-1-1-.294-.334-.607-.64-.938-.938-.366-.42-.734-.825-1.156-1.188-.274-.301-.57-.573-.875-.844-.311-.353-.648-.688-1-1-.311-.353-.648-.688-1-1-.311-.353-.648-.688-1-1-.294-.334-.607-.64-.938-.938-.338-.388-.707-.755-1.094-1.094-.33-.37-.656-.738-1.031-1.063-.283-.313-.59-.595-.906-.875-.311-.353-.648-.688-1-1-.311-.353-.648-.688-1-1-.311-.353-.648-.688-1-1-.309-.351-.62-.69-.969-1-.343-.389-.702-.755-1.094-1.094-.283-.313-.59-.595-.906-.875-.311-.353-.648-.688-1-1-.311-.353-.648-.688-1-1-.311-.353-.648-.688-1-1-.294-.334-.607-.64-.938-.938-.366-.42-.734-.825-1.156-1.188-.274-.301-.57-.573-.875-.844-.311-.353-.648-.688-1-1-.311-.353-.648-.688-1-1-.311-.353-.648-.688-1-1-.294-.334-.607-.64-.938-.938-.338-.388-.707-.755-1.094-1.094-.33-.37-.656-.738-1.031-1.063-.283-.313-.59-.595-.906-.875-.311-.353-.648-.688-1-1-.311-.353-.648-.688-1-1-.34-.386-.705-.757-1.094-1.094-.281-.311-.562-.628-.875-.906-.343-.389-.702-.755-1.094-1.094-.283-.313-.59-.595-.906-.875-.311-.353-.648-.688-1-1-.311-.353-.648-.688-1-1-.311-.353-.648-.688-1-1-.309-.351-.62-.69-.969-1-.343-.389-.702-.755-1.094-1.094-.283-.313-.59-.595-.906-.875-.311-.353-.648-.688-1-1-.311-.353-.648-.688-1-1-.311-.353-.648-.688-1-1-.294-.334-.607-.64-.938-.938-.366-.42-.734-.825-1.156-1.188-.274-.301-.57-.573-.875-.844-.311-.353-.648-.688-1-1-.311-.353-.648-.688-1-1-.311-.353-.648-.688-1-1-.294-.334-.607-.64-.938-.938-.338-.388-.707-.755-1.094-1.094-.33-.37-.656-.738-1.031-1.063-.283-.313-.59-.595-.906-.875-.311-.353-.648-.688-1-1-.311-.353-.648-.688-1-1-.311-.353-.648-.688-1-1-.309-.351-.62-.69-.969-1-.343-.389-.702-.755-1.094-1.094-.283-.313-.59-.595-.906-.875-.311-.353-.648-.688-1-1-.311-.353-.648-.688-1-1-.311-.353-.648-.688-1-1-.294-.334-.607-.64-.938-.938-.366-.42-.734-.825-1.156-1.188-.274-.301-.57-.573-.875-.844-.311-.353-.648-.688-1-1-.311-.353-.648-.688-1-1-.311-.353-.648-.688-1-1-.294-.334-.607-.64-.938-.938-.366-.42-.734-.825-1.156-1.188-.309-.339-.622-.669-.969-.969-.283-.313-.59-.595-.906-.875-.311-.353-.648-.688-1-1-.311-.353-.648-.688-1-1-.34-.386-.705-.757-1.094-1.094-.281-.311-.562-.628-.875-.906-.343-.389-.702-.755-1.094-1.094-.283-.313-.59-.595-.906-.875-.311-.353-.648-.688-1-1-.311-.353-.648-.688-1-1-.311-.353-.648-.688-1-1-.309-.351-.62-.69-.969-1-.343-.389-.702-.755-1.094-1.094-.283-.313-.59-.595-.906-.875-.311-.353-.648-.688-1-1-.311-.353-.648-.688-1-1-.311-.353-.648-.688-1-1-.294-.334-.607-.64-.938-.938-.366-.42-.734-.825-1.156-1.188-.274-.301-.57-.573-.875-.844-.311-.353-.648-.688-1-1-.311-.353-.648-.688-1-1-.311-.353-.648-.688-1-1-.294-.334-.607-.64-.938-.938-.338-.388-.707-.755-1.094-1.094-.33-.37-.656-.738-1.031-1.063-.283-.313-.59-.595-.906-.875-.311-.353-.648-.688-1-1-.311-.353-.648-.688-1-1-.34-.386-.705-.757-1.094-1.094-.281-.311-.562-.628-.875-.906-.343-.389-.702-.755-1.094-1.094-.283-.313-.59-.595-.906-.875-.311-.353-.648-.688-1-1-.311-.353-.648-.688-1-1-.311-.353-.648-.688-1-1-.294-.334-.607-.64-.938-.938-.366-.42-.734-.825-1.156-1.188-.274-.301-.57-.573-.875-.844-.311-.353-.648-.688-1-1-.311-.353-.648-.688-1-1-.311-.353-.648-.688-1-1-.294-.334-.607-.64-.938-.938-.366-.42-.734-.825-1.156-1.188-.274-.301-.57-.573-.875-.844-.311-.353-.648-.688-1-1-.311-.353-.648-.688-1-1-.311-.353-.648-.688-1-1-.314-.356-.644-.685-1-1-.306-.347-.623-.693-.969-1-.343-.388-.702-.755-1.094-1.094-.283-.313-.59-.595-.906-.875-.311-.353-.648-.688-1-1-.311-.353-.648-.688-1-1-.311-.353-.648-.688-1-1-.309-.351-.62-.69-.969-1-.343-.388-.702-.755-1.094-1.094-.283-.313-.59-.595-.906-.875-.311-.353-.648-.688-1-1-.311-.353-.648-.688-1-1-.311-.353-.648-.688-1-1-.294-.334-.607-.64-.938-.938-.366-.42-.734-.825-1.156-1.188-.274-.301-.57-.573-.875-.844-.311-.353-.648-.688-1-1-.311-.353-.648-.688-1-1-.311-.353-.648-.688-1-1-.294-.334-.607-.64-.938-.938-.338-.388-.707-.755-1.094-1.094-.33-.37-.656-.738-1.031-1.063-.283-.313-.59-.595-.906-.875-.311-.353-.648-.688-1-1-.311-.353-.648-.688-1-1-.34-.386-.705-.757-1.094-1.094-.281-.311-.562-.628-.875-.906-.343-.388-.702-.755-1.094-1.094-2.095-2.318-5.119-3.781-8.5-3.781h-109.87" fill-opacity=".235"/><path d="m256 1c-140.83 0-255 114.17-255 255s114.17 255 255 255 255-114.17 255-255-114.17-255-255-255m8.827 44.931c120.9 0 218.9 98 218.9 218.9s-98 218.9-218.9 218.9-218.93-98-218.93-218.9 98.03-218.9 218.93-218.9" fill-opacity=".067"/><g fill-opacity=".129"><path d="m256 4.433c-138.94 0-251.57 112.63-251.57 251.57s112.63 251.57 251.57 251.57 251.57-112.63 251.57-251.57-112.63-251.57-251.57-251.57m5.885 38.556c120.9 0 218.9 98 218.9 218.9s-98 218.9-218.9 218.9-218.93-98-218.93-218.9 98.03-218.9 218.93-218.9"/><path d="m256 8.356c-136.77 0-247.64 110.87-247.64 247.64s110.87 247.64 247.64 247.64 247.64-110.87 247.64-247.64-110.87-247.64-247.64-247.64m2.942 31.691c120.9 0 218.9 98 218.9 218.9s-98 218.9-218.9 218.9-218.93-98-218.93-218.9 98.03-218.9 218.93-218.9"/></g><path d="m253.04 7.859c-135.42 0-245.19 109.78-245.19 245.19 0 135.42 109.78 245.19 245.19 245.19 135.42 0 245.19-109.78 245.19-245.19 0-135.42-109.78-245.19-245.19-245.19zm0 26.297c120.9 0 218.9 98 218.9 218.9s-98 218.9-218.9 218.9-218.93-98-218.93-218.9 98.03-218.9 218.93-218.9z" fill="#fff" stroke="#000" stroke-opacity=".31" stroke-width="4.904"/></g><text x="729.64001" y="231.36"><tspan x="729.64001" y="231.36"/></text><text transform="scale(4.0128 .2492)" x="378.91" y="579.25"/><text x="1310.91" y="151.36"><tspan x="1310.91" y="151.36"/></text><text transform="scale(4.0128 .2492)" x="523.76001" y="258.22"/><text x="239.33" y="-29.900999"><tspan x="239.33" y="-29.900999"/></text><text transform="scale(4.0128 .2492)" x="256.72" y="-469.14001"/><text x="1337.38" y="-246.37"><tspan x="1337.38" y="-246.37"/></text><text transform="scale(4.0128 .2492)" x="530.35999" y="-1337.8101"/><text x="1918.65" y="-326.38"><tspan x="1918.65" y="-326.38"/></text><text transform="scale(4.0128 .2492)" x="675.21002" y="-1658.85"/><text x="1529.53" y="-798.78003"><tspan x="1529.53" y="-798.78003"/></text><text transform="scale(4.0128 .2492)" x="578.23999" y="-3554.51"/><text x="2110.79" y="-878.78003"><tspan x="2110.79" y="-878.78003"/></text><text transform="scale(4.0128 .2492)" x="723.09003" y="-3875.54"/><text x="277.98999" y="535.94"><tspan x="277.98999" y="535.94"/></text><g fill="#fff8eb" fill-rule="evenodd" transform="matrix(1.6204 0 0 1.6204 -869.87 -245.85)"><rect height="49.52" rx="7.082" width="81.977" x="653.81" y="223.91"/><path d="m686.81 282.31v10.906h-84.12v27.968h15.531v-13.156h68.59v14.09h15.531v-14.09h68.34v14.375h15.531v-29.187h-83.87v-10.9h-15.531"/><rect height="32.791" rx="7.082" width="53.871" x="750.85" y="331.32"/><rect height="32.791" rx="7.082" width="53.871" x="584.88" y="331.32"/><rect height="32.791" rx="7.082" width="53.871" x="667.09" y="331.32"/></g><text x="21.264999" y="80.410004"><tspan x="21.264999" y="80.410004"/></text><text transform="scale(4.0128 .2492)" x="202.38" y="-26.486"/><text x="602.53003" y=".406"><tspan x="602.53003" y=".406"/></text><text transform="scale(4.0128 .2492)" x="347.23001" y="-347.51999"/><text x="-469.04999" y="-180.85001"><tspan x="-469.04999" y="-180.85001"/></text><text transform="scale(4.0128 .2492)" x="80.190002" y="-1074.87"/><text x="629" y="-397.32001"><tspan x="629" y="-397.32001"/></text><text transform="scale(4.0128 .2492)" x="353.82999" y="-1943.55"/><text x="1210.27" y="-477.32999"><tspan x="1210.27" y="-477.32999"/></text><text transform="scale(4.0128 .2492)" x="498.67999" y="-2264.5801"/><text x="821.15002" y="-949.72998"><tspan x="821.15002" y="-949.72998"/></text><text transform="scale(4.0128 .2492)" x="401.70999" y="-4160.25"/><text x="1402.42" y="-1029.73"><tspan x="1402.42" y="-1029.73"/></text><text transform="scale(4.0128 .2492)" x="546.56" y="-4481.2798"/><text x="-430.39001" y="384.98999"><tspan x="-430.39001" y="384.98999"/></text></svg>